<svg width="70" height="70" viewBox="0 0 70 70" fill="none" xmlns="http://www.w3.org/2000/svg">
<path fill-rule="evenodd" clip-rule="evenodd" d="M66.9998 17.3391C66.9998 29.7082 57.6803 53.8592 46.6829 53.8592C35.6854 53.8592 25.1529 29.7082 25.1529 17.3391C25.1529 9.18174 29.7338 10.5552 36.0079 12.4364C39.2473 13.4077 42.9381 14.5144 46.6829 14.5144C50.5013 14.5144 54.1175 13.3637 57.2115 12.3792C63.0285 10.5283 66.9998 9.26465 66.9998 17.3391ZM31.622 27.2258C31.622 25.8344 32.1758 24.5001 33.1615 23.5163C34.1472 22.5325 35.4841 21.9798 36.8781 21.9798C38.2722 21.9798 39.6091 22.5325 40.5948 23.5163C41.5805 24.5001 42.1343 25.8344 42.1343 27.2258H36.8781H31.622ZM52.1644 23.5163C51.1787 24.5001 50.6249 25.8344 50.6249 27.2258H55.8811H61.1372C61.1372 25.8344 60.5834 24.5001 59.5977 23.5163C58.612 22.5325 57.2751 21.9798 55.8811 21.9798C54.4871 21.9798 53.1501 22.5325 52.1644 23.5163ZM59.52 36.5071C59.52 36.5071 54.4968 43.569 46.2667 43.569C38.0365 43.569 32.6328 36.5071 32.6328 36.5071C32.6328 36.5071 38.0365 39.7354 46.2667 39.7354C54.4968 39.7354 59.52 36.5071 59.52 36.5071ZM39.3289 53.2185C36.6305 51.1992 34.0447 47.951 31.7458 44.0908C31.3329 44.2048 30.9111 44.3327 30.4816 44.4758C24.4697 46.4791 21.3449 50.0045 21.3449 50.0045C21.3449 50.0045 23.3687 43.7502 29.3807 41.747C29.6836 41.646 29.9855 41.5596 30.2856 41.4865C26.7231 34.7454 24.04 26.7114 23.0126 20.1294C19.5706 20.9737 15.9622 20.9328 12.7712 20.8966C6.18656 20.822 1.37891 20.7675 3.47621 28.5522C6.6564 40.3562 23.1077 60.5153 33.8017 57.4993C35.9579 56.8912 37.7954 55.3649 39.3289 53.2185ZM20.6121 26.8253C21.3173 28.0068 21.5143 29.4285 21.1599 30.7776C20.8055 32.1267 19.9286 33.2928 18.7221 34.0193C17.5157 34.7458 16.0785 34.9732 14.7267 34.6515C13.375 34.3298 12.2194 33.4853 11.5142 32.3038L16.0632 29.5646L20.6121 26.8253Z" fill="#0E0D0D"/>
</svg>
