<svg width="39" height="46" viewBox="0 0 39 46" fill="none" xmlns="http://www.w3.org/2000/svg">
<path fill-rule="evenodd" clip-rule="evenodd" d="M18.5079 3.29797C18.4987 1.46735 17.0072 -0.00918529 15.1766 4.3023e-05C13.346 0.00927134 11.8694 1.50076 11.8787 3.33139L11.9997 27.3475C12.0011 27.6262 12.0369 27.8967 12.103 28.155C12.0319 28.1909 11.9615 28.227 11.8916 28.2632L7.56891 22.4262C6.32383 20.7449 4.11552 20.0744 2.16979 20.8425C1.96563 20.9231 1.76861 21.0018 1.58468 21.0766C1.4074 21.1487 1.21298 21.2291 1.01305 21.3125C0.00683434 21.7325 -0.317436 22.9939 0.349036 23.857L5.83434 32.2448L7.11418 33.9728C13.7984 44.9817 16.575 45.9959 24.7245 45.9959C33.0076 45.9959 38.9999 41.2187 38.9999 33.1177C38.9999 32.6366 38.9762 32.1782 38.93 31.7415C38.9757 31.5235 38.9997 31.2975 38.9997 31.0659V11.1592C38.9997 9.35099 37.5339 7.88512 35.7256 7.88512C33.9174 7.88512 32.4515 9.35099 32.4515 11.1592V20.3403C31.7944 19.3086 30.6404 18.6243 29.3266 18.6243C27.7059 18.6243 26.3285 19.6657 25.8269 21.1158C25.2494 19.6565 23.8258 18.6243 22.161 18.6243C20.5867 18.6243 19.2279 19.5474 18.5966 20.882L18.5079 3.29797Z" fill="black"/>
</svg>
